<svg id="Calque_1" data-name="Calque 1" xmlns="http://www.w3.org/2000/svg" viewBox="0 0 41.3 41.3"><defs><style>.cls-1{fill:#1e1f1d;}</style></defs><path class="cls-1" d="M38,0H3.32A3.32,3.32,0,0,0,0,3.32V38A3.32,3.32,0,0,0,3.32,41.3H38A3.32,3.32,0,0,0,41.3,38V3.32A3.32,3.32,0,0,0,38,0ZM22.76,29.14c-2-.15-2.8-1.13-4.34-2.07-.85,4.45-1.89,8.72-5,11-1-6.73,1.39-11.79,2.48-17.15-1.85-3.12.22-9.4,4.13-7.85,4.81,1.9-4.17,11.6,1.86,12.81,6.29,1.26,8.86-10.92,5-14.88C21.25,5.23,10.48,10.82,11.8,19c.32,2,2.39,2.61.83,5.37-3.61-.8-4.69-3.65-4.55-7.44C8.3,10.73,13.66,6.38,19,5.78c6.8-.76,13.17,2.5,14,8.89C34.08,21.89,30,29.7,22.76,29.14Z"/></svg>